<svg width="16" height="10" viewBox="0 0 16 10" fill="none" xmlns="http://www.w3.org/2000/svg">
<path d="M15.5584 2.43002L8.58491 0.287514C8.20491 0.170764 7.7949 0.170764 7.41515 0.287514L0.441377 2.43002C-0.147126 2.61077 -0.147126 3.38903 0.441377 3.56978L1.65713 3.94328C1.39038 4.27303 1.22638 4.67528 1.21013 5.11578C0.969379 5.25378 0.799878 5.50278 0.799878 5.80004C0.799878 6.06954 0.941879 6.29629 1.14638 6.44129L0.508127 9.3133C0.452627 9.56305 0.642627 9.80005 0.898378 9.80005H2.30113C2.55714 9.80005 2.74714 9.56305 2.69164 9.3133L2.05338 6.44129C2.25788 6.29629 2.39988 6.06954 2.39988 5.80004C2.39988 5.51078 2.23813 5.26878 2.00838 5.12828C2.02738 4.75278 2.21938 4.42078 2.52563 4.21028L7.4149 5.71254C7.6414 5.78204 8.07591 5.86879 8.58466 5.71254L15.5584 3.57003C16.1472 3.38903 16.1472 2.61102 15.5584 2.43002ZM8.81966 6.47729C8.10641 6.69629 7.49865 6.57529 7.1799 6.47729L3.55439 5.36353L3.19989 8.20005C3.19989 9.0838 5.3489 9.80005 7.99991 9.80005C10.6509 9.80005 12.7999 9.0838 12.7999 8.20005L12.4454 5.36328L8.81966 6.47729Z" fill="#777777"/>
</svg>
