<svg width="16" height="16" viewBox="0 0 16 16" fill="none" xmlns="http://www.w3.org/2000/svg">
<path d="M11.9999 3.3335C12.1767 3.3335 12.3463 3.40373 12.4713 3.52876C12.5963 3.65378 12.6665 3.82335 12.6665 4.00016V9.3335C12.6665 9.51031 12.5963 9.67988 12.4713 9.8049C12.3463 9.92992 12.1767 10.0002 11.9999 10.0002C11.8231 10.0002 11.6535 9.92992 11.5285 9.8049C11.4034 9.67988 11.3332 9.51031 11.3332 9.3335V5.6095L4.69988 12.2428C4.57414 12.3643 4.40574 12.4315 4.23094 12.4299C4.05614 12.4284 3.88894 12.3583 3.76533 12.2347C3.64172 12.1111 3.57161 11.9439 3.57009 11.7691C3.56857 11.5943 3.63577 11.4259 3.75721 11.3002L10.3905 4.66683H6.66654C6.48973 4.66683 6.32016 4.59659 6.19514 4.47157C6.07011 4.34654 5.99988 4.17697 5.99988 4.00016C5.99988 3.82335 6.07011 3.65378 6.19514 3.52876C6.32016 3.40373 6.48973 3.3335 6.66654 3.3335H11.9999Z" fill="white" fill-opacity="0.8"/>
</svg>
