<svg width="16" height="16" viewBox="0 0 16 16" fill="none" xmlns="http://www.w3.org/2000/svg">
<path fill-rule="evenodd" clip-rule="evenodd" d="M9.4 15H6.6C3.96013 15 2.6402 15 1.8201 14.1799C1 13.3598 1 12.0399 1 9.4V6.6C1 3.96013 1 2.6402 1.8201 1.8201C2.6402 1 3.96709 1 6.62085 1C7.04506 1 7.38498 1 7.67101 1.01166C7.66159 1.06761 7.65666 1.12469 7.65646 1.1824L7.65 3.16648C7.64994 3.93445 7.64988 4.61315 7.72343 5.16021C7.80316 5.75319 7.98621 6.34608 8.4701 6.82997C8.95399 7.31386 9.54688 7.49692 10.1399 7.57664C10.6869 7.65019 11.3656 7.65014 12.1336 7.65008L12.2 7.65007H14.9702C15 8.02406 15 8.48307 15 9.09403V9.4C15 12.0399 15 13.3598 14.1799 14.1799C13.3598 15 12.0399 15 9.4 15Z" fill="white"/>
<path d="M13.1462 4.93166L10.3751 2.43763C9.58556 1.72708 9.19081 1.3718 8.70646 1.18594L8.7 3.10007C8.7 4.74999 8.7 5.57495 9.21256 6.08751C9.72513 6.60007 10.5501 6.60007 12.2 6.60007H14.7061C14.4523 6.10712 13.9979 5.69815 13.1462 4.93166Z" fill="white"/>
</svg>
