<svg width="10" height="11" viewBox="0 0 10 11" fill="none" xmlns="http://www.w3.org/2000/svg">
<path d="M5.83301 1.75C6.16453 1.75 6.48247 1.8817 6.71689 2.11612C6.95131 2.35054 7.08301 2.66848 7.08301 3H8.33301C8.55402 3 8.76598 3.0878 8.92226 3.24408C9.07854 3.40036 9.16634 3.61232 9.16634 3.83333V8.41667C9.16634 8.63768 9.07854 8.84964 8.92226 9.00592C8.76598 9.1622 8.55402 9.25 8.33301 9.25H1.66634C1.44533 9.25 1.23337 9.1622 1.07709 9.00592C0.920805 8.84964 0.833008 8.63768 0.833008 8.41667V3.83333C0.833008 3.61232 0.920805 3.40036 1.07709 3.24408C1.23337 3.0878 1.44533 3 1.66634 3H2.91634C2.91634 2.66848 3.04804 2.35054 3.28246 2.11612C3.51688 1.8817 3.83482 1.75 4.16634 1.75H5.83301ZM7.91634 4.66667H2.08301C1.97681 4.66678 1.87466 4.70745 1.79744 4.78035C1.72021 4.85326 1.67374 4.9529 1.66752 5.05891C1.6613 5.16493 1.69579 5.26932 1.76395 5.35076C1.83211 5.4322 1.9288 5.48454 2.03426 5.49708L2.08301 5.5H4.58301V5.91667C4.58313 6.02287 4.62379 6.12501 4.69669 6.20224C4.7696 6.27946 4.86924 6.32593 4.97526 6.33216C5.08127 6.33838 5.18567 6.30389 5.2671 6.23572C5.34854 6.16756 5.40088 6.07087 5.41342 5.96542L5.41634 5.91667V5.5H7.91634C8.02254 5.49988 8.12469 5.45922 8.20191 5.38631C8.27913 5.31341 8.32561 5.21377 8.33183 5.10775C8.33805 5.00173 8.30356 4.89734 8.2354 4.8159C8.16723 4.73446 8.07055 4.68213 7.96509 4.66958L7.91634 4.66667ZM5.83301 2.58333H4.16634C4.06429 2.58335 3.96578 2.62081 3.88952 2.68863C3.81325 2.75645 3.76453 2.8499 3.75259 2.95125L3.74967 3H6.24967C6.24966 2.89794 6.21219 2.79944 6.14438 2.72318C6.07656 2.64691 5.98311 2.59819 5.88176 2.58625L5.83301 2.58333Z" fill="#084169"/>
</svg>
