<svg width="16" height="16" viewBox="0 0 16 16" fill="none" xmlns="http://www.w3.org/2000/svg">
<path d="M10.7633 11.1509C10.8858 11.0554 10.9969 10.9443 11.2191 10.7221L13.9893 7.95187C14.0563 7.8849 14.0256 7.76955 13.9362 7.7385C13.6092 7.62506 13.1838 7.41207 12.7859 7.01418C12.388 6.61629 12.175 6.19093 12.0616 5.86394C12.0306 5.77446 11.9152 5.74381 11.8482 5.81078L9.07805 8.58096C8.85584 8.80317 8.74473 8.91427 8.64918 9.03678C8.53647 9.18129 8.43983 9.33764 8.36099 9.50308C8.29415 9.64333 8.24446 9.79239 8.14509 10.0905L8.01668 10.4757L7.81251 11.0883L7.62106 11.6626C7.57216 11.8093 7.61034 11.9711 7.71969 12.0804C7.82904 12.1898 7.99079 12.2279 8.1375 12.179L8.71183 11.9876L9.32437 11.7834L9.70958 11.655L9.70959 11.655C10.0077 11.5556 10.1568 11.5059 10.297 11.4391C10.4625 11.3603 10.6188 11.2636 10.7633 11.1509Z" fill="#777777"/>
<path d="M14.8567 7.08453C15.4479 6.49328 15.4479 5.53468 14.8567 4.94343C14.2654 4.35219 13.3068 4.35219 12.7156 4.94343L12.6265 5.03249C12.5406 5.11843 12.5016 5.23847 12.5231 5.3581C12.5366 5.43335 12.5616 5.54337 12.6072 5.67465C12.6983 5.9372 12.8703 6.28184 13.1943 6.60582C13.5183 6.92981 13.8629 7.10182 14.1254 7.1929C14.2567 7.23845 14.3667 7.26349 14.442 7.27699C14.5616 7.29846 14.6817 7.25953 14.7676 7.17359L14.8567 7.08453Z" fill="#777777"/>
<path fill-rule="evenodd" clip-rule="evenodd" d="M1.8201 1.8201C1 2.6402 1 3.96013 1 6.6V9.4C1 12.0399 1 13.3598 1.8201 14.1799C2.6402 15 3.96013 15 6.6 15H8C10.6399 15 11.9598 15 12.7799 14.1799C13.5868 13.373 13.5998 12.0821 13.6 9.52605L11.6272 11.4989C11.4384 11.6878 11.2837 11.8426 11.109 11.9789C10.9044 12.1385 10.683 12.2753 10.4487 12.387C10.2487 12.4823 10.0411 12.5514 9.78766 12.6358L8.16947 13.1752C7.64546 13.3498 7.06774 13.2134 6.67716 12.8229C6.28658 12.4323 6.1502 11.8546 6.32487 11.3306L6.51632 10.7562L6.8489 9.75848L6.86424 9.71242C6.94864 9.45893 7.01776 9.25133 7.11306 9.05135C7.22471 8.81707 7.36156 8.59565 7.52118 8.391C7.65742 8.21633 7.8122 8.06166 8.00118 7.87281L10.8057 5.06832L11.584 4.29003L11.673 4.20097C12.1738 3.70019 12.8302 3.44987 13.4866 3.45C13.3807 2.72862 13.1759 2.21609 12.7799 1.8201C11.9598 1 10.6399 1 8 1H6.6C3.96013 1 2.6402 1 1.8201 1.8201ZM3.975 5.9C3.975 5.61005 4.21005 5.375 4.5 5.375H9.05C9.33995 5.375 9.575 5.61005 9.575 5.9C9.575 6.18995 9.33995 6.425 9.05 6.425H4.5C4.21005 6.425 3.975 6.18995 3.975 5.9ZM3.975 8.7C3.975 8.41005 4.21005 8.175 4.5 8.175H6.25C6.53995 8.175 6.775 8.41005 6.775 8.7C6.775 8.98995 6.53995 9.225 6.25 9.225H4.5C4.21005 9.225 3.975 8.98995 3.975 8.7ZM3.975 11.5C3.975 11.2101 4.21005 10.975 4.5 10.975H5.55C5.83995 10.975 6.075 11.2101 6.075 11.5C6.075 11.7899 5.83995 12.025 5.55 12.025H4.5C4.21005 12.025 3.975 11.7899 3.975 11.5Z" fill="#777777"/>
</svg>
