<svg width="10" height="11" viewBox="0 0 10 11" fill="none" xmlns="http://www.w3.org/2000/svg">
<g clip-path="url(#clip0_772_1609)">
<path d="M5.00033 5.70834C4.61355 5.70834 4.24262 5.86199 3.96913 6.13548C3.69564 6.40897 3.54199 6.7799 3.54199 7.16668C3.54199 7.55345 3.69564 7.92438 3.96913 8.19787C4.24262 8.47136 4.61355 8.62501 5.00033 8.62501C5.3871 8.62501 5.75803 8.47136 6.03152 8.19787C6.30501 7.92438 6.45866 7.55345 6.45866 7.16668C6.45866 6.7799 6.30501 6.40897 6.03152 6.13548C5.75803 5.86199 5.3871 5.70834 5.00033 5.70834ZM4.37533 7.16668C4.37533 7.00092 4.44117 6.84195 4.55838 6.72474C4.67559 6.60752 4.83457 6.54168 5.00033 6.54168C5.16609 6.54168 5.32506 6.60752 5.44227 6.72474C5.55948 6.84195 5.62533 7.00092 5.62533 7.16668C5.62533 7.33244 5.55948 7.49141 5.44227 7.60862C5.32506 7.72583 5.16609 7.79168 5.00033 7.79168C4.83457 7.79168 4.67559 7.72583 4.55838 7.60862C4.44117 7.49141 4.37533 7.33244 4.37533 7.16668Z" fill="#084169"/>
<path d="M7.3025 2.63168L5.97792 0.774597L1.1075 4.66543L0.8375 4.66251V4.66668H0.625V9.66668H9.375V4.66668H8.97417L8.17667 2.33376L7.3025 2.63168ZM8.09375 4.66668H3.91542L7.0275 3.60585L7.66167 3.40293L8.09375 4.66668ZM6.47917 2.91251L3.26667 4.00751L5.81083 1.97501L6.47917 2.91251ZM1.45833 8.07043V6.2621C1.63424 6.20001 1.79402 6.09935 1.92596 5.96748C2.0579 5.83561 2.15865 5.67589 2.22083 5.50001H7.77917C7.84129 5.67596 7.94202 5.83577 8.07397 5.96771C8.20591 6.09966 8.36572 6.20039 8.54167 6.26251V8.07085C8.36572 8.13297 8.20591 8.2337 8.07397 8.36565C7.94202 8.49759 7.84129 8.6574 7.77917 8.83335H2.22167C2.15924 8.65738 2.05832 8.49757 1.92626 8.36558C1.7942 8.23359 1.63433 8.13276 1.45833 8.07043Z" fill="#084169"/>
</g>
<defs>
<clipPath id="clip0_772_1609">
<rect width="10" height="10" fill="white" transform="translate(0 0.5)"/>
</clipPath>
</defs>
</svg>
